<svg
  xmlns="http://www.w3.org/2000/svg"
  width="32"
  height="32"
  viewBox="0 0 512 512"
>
  <path d="M195.089 390.921c0 17.684-16.047 21.613-30.456 21.613-14.082 0-35.04-2.293-35.04-20.631 0-18.012 17.684-20.959 32.093-20.959 13.754 0 33.403 2.293 33.403 19.976zm-11.79-152.605c0 16.374-6.549 27.836-24.233 27.836-18.012 0-25.215-10.479-25.215-27.508s6.549-29.474 25.215-29.474c16.702 0 24.233 13.754 24.233 29.145zm54.362-24.56v-40.934c-14.082 5.24-29.145 9.496-44.209 9.496-10.806-6.222-23.25-9.496-36.022-9.496-37.333 0-66.805 27.508-66.805 65.495 0 20.303 13.427 48.467 33.731 55.344v.983c-10.479 4.584-12.444 17.356-12.444 27.836 0 10.807 3.93 19.649 13.427 25.216v.983c-22.268 7.204-37.005 21.286-37.005 45.52 0 41.59 39.626 53.38 74.337 53.38 41.917 0 73.355-15.391 73.355-61.566 0-32.748-29.801-42.572-56.981-47.485-9.169-1.637-24.889-8.188-24.889-19.649 0-10.807 5.895-15.391 16.047-17.029 33.403-6.55 54.689-32.42 54.689-66.805 0-5.895-1.31-11.462-3.275-17.029 5.24-1.31 10.806-2.619 16.047-4.258zm19.321 137.213h44.865c-.654-8.842-.654-18.012-.654-26.853V197.382c0-7.531 0-15.065.654-22.596h-44.865c.983 7.531.983 15.719.983 23.25v128.371c0 8.188 0 16.373-.983 24.561zm166.686-5.24v-39.625c-6.55 4.584-14.409 6.877-22.268 6.877-14.736 0-17.356-14.736-17.356-26.853v-73.683h17.029c5.895 0 11.462.655 17.356.655v-38.315h-34.385c0-11.135-.654-22.268.983-33.403h-45.846c.983 5.895 1.31 11.789 1.31 18.012v15.391h-19.649V213.1c3.93-.327 7.86-.982 12.117-.982 2.293 0 4.912.327 7.531.327v.655h-.654v71.063c0 35.368 5.24 69.425 48.467 69.425 12.117 0 24.561-1.965 35.368-7.86zm-116.582-231.2c0-15.391-11.462-29.801-27.508-29.801s-27.836 14.082-27.836 29.801c0 15.391 12.117 29.145 27.836 29.145s27.508-14.082 27.508-29.145zM507.503 98.81v314.38c0 52.069-42.245 94.314-94.314 94.314H98.809c-52.069 0-94.314-42.245-94.314-94.313V98.811c0-52.069 42.245-94.314 94.314-94.314h314.38c52.069 0 94.313 42.245 94.313 94.314z" />
</svg>
