<svg
  version="1.1"
  id="Layer_1"
  xmlns="http://www.w3.org/2000/svg"
  x="0px"
  y="0px"
  width="393px"
  height="347px"
  viewBox="0 0 393 347"
  enableBackground="new 0 0 393 347"

>
  <path
    fill="#8F5725"
    stroke="#000000"
    strokeWidth="3"
    strokeLinecap="round"
    strokeLinejoin="round"
    d="M103,115.667
  c0,0-1.75-27.917,4.75-35.417l6.25-11.5l-6.75-2.25c0,0,6.75-3.25,10.25-1c0,0-10.25-8.5,3.25-20.75c0,0,25-19.5,35.75-19.5
  c0,0-4.5,6.75-4.25,8.75c0,0,14.25-18.5,36.5-19.25c0,0-6.5,10.5-1,10.25c0,0,22-12.5,23.5-14.25c0,0,1.5,4.25-3,9
  c0,0-6.25,6,0.25,5.5c0,0,10.5-2.5,16-13c0,0,3.5,10.25-1.25,14.75c0,0-5.25,7.5,5.25,4.5c0,0,10.5-2,13-0.25c0,0-11,4-5,5.75
  c0,0,16.75-1.25,34.5,20.5h-10c0,0,25.5,21.5,28,31.75l-11.25,1c0,0,7,8,6.5,15.5c0,0-6.5,0.5-3.75,5.75l4.25,10.5
  c0,0-8.5,7.5-8.5,17.75l0.5,23.75c0,0-4.25,13.5-10,14.25c0,0-2.25-53.25-29.75-70.75l4.75-1.75l-17.75-17V84.5l-17.75-11l-18.5,7.5
  c0,0-2.5-7-7.5-2.5c0,0-23,11.25-20,3.5c0,0-19.25-0.75-25.5-2.25c0,0-2.5,6.5-14.5,9.75C120.25,89.5,106.5,109.083,103,115.667z"
  />
  <path
    fill="none"
    stroke="#000000"
    strokeWidth="3"
    strokeLinecap="round"
    strokeLinejoin="round"
    d="M186,164
  c0,0,21-11.75,35.75,1.75"
  />
  <path
    fill="none"
    stroke="#000000"
    strokeWidth="3"
    strokeLinecap="round"
    strokeLinejoin="round"
    d="M128.25,171.75
  c0,0-7.5-10.75-20.75-8.75c0,0-4.25,2-6.25,4.75"
  />
  <path d="M101.25,188c0,0,22.5-6.5,28.5-0.5c0,0,10.75,11.25-3,14.5c0,0-14.5,3-11.75-10.5v-3.75L101.25,188z" />
  <path
    d="M179.5,178.25c0,0,23.75-11.25,32.25-3.5c0,0,9.5,7.25,3.25,15.5c0,0-9.25,8.75-18.25,0c0,0-5.25-9.25,2-14.5
  C198.75,175.75,193.5,174,179.5,178.25z"
  />
  <line
    fill="none"
    stroke="#000000"
    strokeLinecap="round"
    strokeLinejoin="round"
    x1="209.5"
    y1="195.75"
    x2="209.75"
    y2="198.25"
  />
  <line
    fill="none"
    stroke="#000000"
    strokeLinecap="round"
    strokeLinejoin="round"
    x1="212"
    y1="194.5"
    x2="213.75"
    y2="196.5"
  />
  <line
    fill="none"
    stroke="#000000"
    strokeLinecap="round"
    strokeLinejoin="round"
    x1="215"
    y1="192.75"
    x2="216.75"
    y2="195"
  />
  <polyline
    fill="none"
    stroke="#000000"
    strokeWidth="3"
    strokeLinecap="round"
    strokeLinejoin="round"
    points="152,216.75
  161,222 166.75,215.25 171.75,215 "
  />
  <line
    fill="none"
    stroke="#000000"
    x1="113.5"
    y1="201.75"
    x2="113"
    y2="203.75"
  />
  <line
    fill="none"
    stroke="#000000"
    x1="110.25"
    y1="200.25"
    x2="109.5"
    y2="203.5"
  />
  <line
    fill="none"
    stroke="#000000"
    x1="107.75"
    y1="199.5"
    x2="106.25"
    y2="202.5"
  />
  <path
    fill="none"
    stroke="#000000"
    strokeLinecap="round"
    strokeLinejoin="round"
    d="M132.5,229.5c0,0-2,5.75-0.75,8"
  />
  <path
    fill="none"
    stroke="#000000"
    strokeLinecap="round"
    strokeLinejoin="round"
    d="M160.25,245c0,0,10-2,12.5,2"
  />
  <path
    fill="none"
    stroke="#000000"
    strokeWidth="3"
    strokeLinecap="round"
    strokeLinejoin="round"
    d="M139.5,235.25
  c0,0,12.75,5.25,38,1.25c0,0,17-3.75,18.25-6"
  />
  <path
    fill="none"
    stroke="#000000"
    strokeWidth="3"
    strokeLinecap="round"
    strokeLinejoin="round"
    d="M262.25,215.75
  c0,0,3,9.25-4.25,15.75c0,0-48.5,36.25-74.75,40h-20.5c0,0-7.75,0.25-19.5-7.25c0,0-30.25-13.5-36.5-16.25c0,0-6,0.25-5.5-13.5
  c0,0,1.75-16.5-2.5-31c0,0-8.25-36.25,6.75-90.5"
  />
  <path
    fill="none"
    stroke="#000000"
    strokeWidth="3"
    strokeLinecap="round"
    strokeLinejoin="round"
    d="M285.75,202.5
  c0,0-5.5-4.25-14-0.75c0,0-8.75,2-6.5,10.25c0,0,0.75,8.75,9.5,7c0,0,12.5,0.5,14.5-5.25l4.25-6.25l0.25-25.5
  c0,0-7.25-30-11.75-26.75c0,0-5.25,0.5-5.25,4.25"
  />
  <polyline
    fill="none"
    stroke="#000000"
    strokeWidth="3"
    strokeLinecap="round"
    strokeLinejoin="round"
    points="143.5,304.25
  144.25,291.75 160.5,272.75 "
  />
  <path
    fill="none"
    stroke="#000000"
    strokeWidth="3"
    strokeLinecap="round"
    strokeLinejoin="round"
    d="M166,273.5c0,0,4.5,11,14,9
  c0,0,12-1,20.5-16.75"
  />
  <path
    fill="none"
    stroke="#000000"
    strokeWidth="3"
    strokeLinecap="round"
    strokeLinejoin="round"
    d="M222.25,256.75
  c0,0,20.25,4.75,26.75,4.75c0,0,13.5-0.75,18.25,5.25c0,0,15.25,16.25,17,20.25c0,0,4.25,23-4.25,47"
  />
  <path
    fill="none"
    stroke="#000000"
    strokeWidth="3"
    strokeLinecap="round"
    strokeLinejoin="round"
    d="M230,303.75
  c0,0,4.75,7.5,0.25,17.5c0,0-2,15,0.5,18.5"
  />
  <path
    fill="none"
    stroke="#000000"
    strokeWidth="3"
    strokeLinecap="round"
    strokeLinejoin="round"
    d="M232.5,319.75
  c0,0,12.25,0.25,23.75-4.25c0,0,22.5-4.5,27-2.25"
  />
  <path
    fill="none"
    stroke="#000000"
    strokeLinecap="round"
    strokeLinejoin="round"
    d="M265,317.75c0,0,3,6.75-2.75,8"
  />
  <path
    fill="none"
    stroke="#000000"
    strokeLinecap="round"
    strokeLinejoin="round"
    d="M266.75,330.5c0,0,2.5-9.5,9-2.25"
  />
  <path
    fill="none"
    stroke="#000000"
    strokeLinecap="round"
    strokeLinejoin="round"
    d="M277,319.25c0,0-8.25,5.5-7-3.5"
  />
  <circle fill="#FFFFFF" cx="209.375" cy="181.375" r="1.625" />
  <circle fill="#FFFFFF" cx="127" cy="191.5" r="1.25" />
  <path
    fill="#FFFFFF"
    stroke="#000000"
    strokeWidth="12"
    strokeLinecap="round"
    d="M71,63c0,0-60,41-60,136c0,0,0,59,60,111"
  />
  <path
    fill="#FFFFFF"
    stroke="#000000"
    strokeWidth="12"
    strokeLinecap="round"
    d="M318,63c0,0,60,41,60,136c0,0,0,59-60,111"
  />
</svg>
